<svg width="61" height="21" viewBox="0 0 61 21" fill="none" xmlns="http://www.w3.org/2000/svg">
<g id="Layer_1" clip-path="url(#clip0_409_33)">
<path id="Subtract" fill-rule="evenodd" clip-rule="evenodd" d="M11.6926 12.2134C11.5885 9.7559 9.82894 6.95664 6.35346 6.95664C3.21482 6.95281 0.194824 9.9468 0.194824 13.9324C0.194824 17.918 3.12678 20.5483 6.69029 20.5483C8.59466 20.5483 10.4693 19.5821 11.6517 17.7302C11.6826 17.6818 11.674 17.6181 11.6318 17.5791L11.4078 17.3725C11.3556 17.3243 11.2733 17.3319 11.2298 17.3881C10.4256 18.4289 9.39362 19.2949 8.26665 19.42C3.50697 19.9484 3.2585 16.0282 3.2585 13.9324H11.1193C11.4504 13.9324 11.7195 13.664 11.7177 13.3329C11.7156 12.9411 11.7096 12.524 11.6926 12.2134ZM6.3026 7.81913C7.90254 7.81913 9.1116 9.50403 9.19963 11.6519C9.22636 12.1741 9.23631 12.4446 9.24002 12.6775C9.24371 12.9093 9.05433 13.0971 8.82255 13.0971H3.24631C3.24621 12.6306 3.30769 11.9772 3.34002 11.6519C3.58116 9.23603 4.72944 7.81913 6.29877 7.81913H6.3026Z" fill="white"/>
<path id="Vector" d="M19.2557 18.9774C17.8969 18.9774 17.2615 17.9207 17.2615 16.4696V8.22272H21.2193L21.204 7.46082H17.5757C17.4105 7.46082 17.2764 7.32716 17.2759 7.16196L17.2654 3.66281H17.0242C16.5113 5.46227 15.0186 7.38042 12.5229 7.77094V8.19209H14.1229L14.031 16.9252C14.031 19.0692 15.631 20.5509 17.6864 20.5509C19.4358 20.5509 20.8355 19.6486 21.7986 18.1329C21.831 18.0819 21.8195 18.0148 21.7725 17.977L21.5013 17.7586C21.4478 17.7155 21.3692 17.7263 21.3279 17.7811C20.7195 18.5888 20.1272 18.9774 19.2596 18.9774H19.2557Z" fill="white"/>
<path id="Vector_2" d="M43.6104 6.95117C40.3186 6.95117 37.1455 9.70013 37.1455 13.7508C37.1455 17.8015 40.3186 20.5505 43.6104 20.5505C46.9021 20.5505 50.0752 17.7709 50.0752 13.7508C50.0752 9.73076 46.9021 6.95117 43.6104 6.95117ZM43.6104 19.7312C41.7386 19.7312 40.4679 17.7364 40.4679 13.747C40.4679 9.75756 41.7348 7.73604 43.6104 7.73604C45.4859 7.73604 46.7528 9.73076 46.7528 13.747C46.7528 17.7632 45.4859 19.7312 43.6104 19.7312Z" fill="white"/>
<path id="Vector_3" d="M57.9911 12.7248L55.9663 11.6681C54.9099 11.155 54.1827 10.642 54.1827 9.64271C54.1827 8.52474 54.9367 7.73987 56.2075 7.73987C57.7787 7.73987 59.2059 8.93619 59.6011 10.9517C59.6133 11.0139 59.6708 11.0576 59.7338 11.0505L60.0588 11.0139C60.1194 11.007 60.1655 10.9557 60.1635 10.8947C60.1575 10.7047 60.1356 10.5156 60.1002 10.3319C59.9853 9.73076 59.7251 9.16795 59.3882 8.64726C59.2007 8.35628 58.9825 8.08445 58.726 7.8509C58.4964 7.64033 58.2246 7.4489 57.9337 7.33786C57.4476 7.15026 56.8275 6.95117 56.0582 6.95117C53.6736 6.95117 51.71 8.52091 51.71 10.8794C51.71 12.6022 52.7664 13.6589 54.1865 14.3826L56.4524 15.5618C57.6007 16.1667 58.3241 16.6185 58.3241 17.6752C58.3241 19.0037 57.417 19.7005 55.997 19.7005C53.9454 19.7005 52.3641 18.0639 52.0247 15.9121C52.015 15.8506 51.9608 15.8054 51.8987 15.8086L51.5081 15.8283C51.4497 15.8313 51.4038 15.8795 51.4038 15.938C51.4957 17.5997 52.2191 19.2143 53.7616 20.003C54.4736 20.3667 55.285 20.5467 56.085 20.5467C58.7146 20.5467 60.7355 18.8544 60.7355 16.4692C60.7355 14.597 59.526 13.5364 57.9873 12.7209L57.9911 12.7248Z" fill="white"/>
<path id="Vector_4" d="M34.3828 20.2484C34.7426 20.2484 35.0335 19.9574 35.0335 19.5975V18.3953C35.0258 18.269 35.022 18.135 35.022 17.9818V11.366C35.022 8.95008 33.7551 6.95536 31.003 6.95536C29.0815 6.95536 27.5658 8.37196 26.9343 9.59329C26.9228 9.61627 26.8921 9.60478 26.8921 9.58181V0.630455C26.8921 0.630455 26.8807 0.607483 26.8692 0.607483H24.3812C23.9793 0.607483 23.654 0.932917 23.654 1.33492L23.6387 20.2216C23.6387 20.2216 23.6502 20.2446 23.6616 20.2446H26.2568C26.6166 20.2446 26.9075 19.9536 26.9075 19.5937L26.896 10.3399C26.896 10.3399 26.896 10.3322 26.896 10.3284C27.4089 9.33295 28.2854 8.67059 29.338 8.67059C30.9073 8.67059 31.8145 9.69667 31.8145 11.8752L31.803 20.2216C31.803 20.2216 31.8145 20.2446 31.8259 20.2446H34.379L34.3828 20.2484Z" fill="white"/>
</g>
<defs>
<clipPath id="clip0_409_33">
<rect width="60.8056" height="19.9434" fill="white" transform="translate(0.194336 0.606873)"/>
</clipPath>
</defs>
</svg>
